<svg width="20" height="21" viewBox="0 0 20 21" fill="none" xmlns="http://www.w3.org/2000/svg">
<g clip-path="url(#clip0_316_2152)">
<path d="M9.99994 20.3461C15.4038 20.3461 19.7846 15.9654 19.7846 10.5615C19.7846 5.15764 15.4038 0.776917 9.99994 0.776917C4.59605 0.776917 0.215332 5.15764 0.215332 10.5615C0.215332 15.9654 4.59605 20.3461 9.99994 20.3461Z" fill="#FBBD5E"/>
<path d="M0.522957 5.82307H19.446V19.8846H2.21526C1.26142 19.8846 0.492188 19.1154 0.492188 18.1923V5.82307H0.522957Z" fill="#E0E4E8"/>
<path d="M19.4769 20.1923H2.24609C1.1384 20.1923 0.246094 19.3 0.246094 18.1923V5.82307C0.246094 5.66923 0.369171 5.51538 0.553786 5.51538H19.4769C19.6307 5.51538 19.7846 5.63846 19.7846 5.82307V19.8846C19.7846 20.0692 19.6307 20.1923 19.4769 20.1923ZM0.830709 6.13077V18.2231C0.830709 18.9923 1.44609 19.6077 2.21532 19.6077H19.1384V6.13077H0.830709Z" fill="#183651"/>
<path d="M18.2462 7.02307H1.75391V18.1923C1.75391 18.4385 1.96929 18.6538 2.21544 18.6538H15.3231L18.2154 16.0692V7.02307H18.2462Z" fill="white"/>
<path d="M15.3538 18.6846L18.2461 16.0692H15.3538V18.6846Z" fill="#CECFD0"/>
<path d="M2.15372 3.97691C1.26141 3.97691 0.522949 4.71537 0.522949 5.60768V18.0385C0.522949 17.1461 1.26141 16.4077 2.15372 16.4077C3.04603 16.4077 3.78449 17.1461 3.78449 18.0385V5.57691C3.75372 4.68461 3.04603 3.97691 2.15372 3.97691Z" fill="#4FBF9F"/>
<path d="M3.75379 18.3461C3.59995 18.3461 3.4461 18.2231 3.4461 18.0384C3.4461 17.3 2.86149 16.7154 2.12302 16.7154C1.38456 16.7154 0.830717 17.3308 0.830717 18.0384C0.830717 18.1923 0.70764 18.3461 0.523024 18.3461C0.338409 18.3461 0.215332 18.2231 0.215332 18.0384V5.57691C0.215332 4.53076 1.07687 3.66922 2.12302 3.66922C3.16918 3.66922 4.03072 4.53076 4.03072 5.57691V18.0384C4.06149 18.2231 3.93841 18.3461 3.75379 18.3461ZM2.15379 16.1308C2.6461 16.1308 3.10764 16.3154 3.47687 16.6538V5.57691C3.47687 4.83845 2.89226 4.25384 2.15379 4.25384C1.41533 4.25384 0.830717 4.83845 0.830717 5.57691V16.6231C1.16918 16.3154 1.63072 16.1308 2.15379 16.1308Z" fill="#183651"/>
<path d="M5.38452 8.34615H9.26144V8.96153H5.38452V8.34615Z" fill="#183651"/>
<path d="M5.38452 10.2538H9.26144V10.8692H5.38452V10.2538Z" fill="#183651"/>
<path d="M5.38452 12.1615H9.26144V12.7769H5.38452V12.1615Z" fill="#183651"/>
<path d="M5.38452 14.0692H9.26144V14.6846H5.38452V14.0692Z" fill="#183651"/>
<path d="M14.1537 3.63846L11.846 11.2692C11.2922 13.0538 11.3537 14.9923 12.0306 16.7462C13.5691 15.6385 14.6768 14.0692 15.2306 12.2846L17.5383 4.68461L14.1537 3.63846Z" fill="#2EA0DA"/>
<path d="M11.9384 17.0538C11.8461 17.0231 11.7845 16.9615 11.7538 16.8692C11.0769 15.0538 11.0153 13.0231 11.5692 11.1769L13.8769 3.54615C13.9076 3.45385 13.9692 3.39231 14.0307 3.36154C14.0922 3.33077 14.1845 3.3 14.2769 3.33077L17.6615 4.34615C17.8153 4.40769 17.9076 4.56154 17.8769 4.71538L15.5692 12.3462C15.0153 14.1923 13.8153 15.8538 12.2461 16.9615C12.123 17.0538 12.0307 17.0846 11.9384 17.0538ZM14.3692 4.03846L12.1538 11.3615C11.6615 12.9615 11.6922 14.6846 12.1845 16.2538C13.4769 15.2077 14.4615 13.7923 14.9538 12.1923L17.1692 4.86923L14.3692 4.03846Z" fill="#183651"/>
<path d="M12.6153 14.8077C12.4615 13.7308 12.5538 12.6231 12.8615 11.6077L14.8615 4.99229L16.1846 5.39229L14.1846 12.0077C13.8769 13.0231 13.323 13.9769 12.6153 14.8077Z" fill="white"/>
<path d="M17.8151 1.66923L15.5997 0.992304C15.292 0.899996 14.9228 1.08461 14.8305 1.3923L14.1536 3.63846L17.5382 4.65384L18.2151 2.40769C18.3074 2.1 18.1228 1.76153 17.8151 1.66923Z" fill="#F06151"/>
<path d="M17.5383 4.9923C17.5075 4.9923 17.4768 4.9923 17.446 4.9923L14.0614 3.97692C13.9075 3.91538 13.8152 3.76153 13.846 3.60769L14.5229 1.36153C14.646 0.961532 14.9844 0.715378 15.3844 0.715378C15.4768 0.715378 15.5691 0.715378 15.6614 0.746147L17.8768 1.42307C18.1229 1.48461 18.3075 1.63845 18.4306 1.85384C18.5537 2.06922 18.5844 2.31538 18.4921 2.56153L17.8152 4.80768C17.7844 4.89999 17.7229 4.96153 17.6614 4.9923C17.6306 4.96153 17.5691 4.9923 17.5383 4.9923ZM14.5537 3.45384L17.3537 4.31538L17.9383 2.34615C17.9691 2.25384 17.9691 2.1923 17.9075 2.09999C17.8768 2.03845 17.8152 1.97692 17.7229 1.94615L15.5075 1.26922C15.3537 1.20769 15.1691 1.33076 15.1383 1.48461L14.5537 3.45384Z" fill="#183651"/>
<path d="M5.38452 15.9769H5.99991V16.5923H5.38452V15.9769Z" fill="#183651"/>
<path d="M7.01538 15.9769H7.63077V16.5923H7.01538V15.9769Z" fill="#183651"/>
<path d="M8.646 15.9769H9.26138V16.5923H8.646V15.9769Z" fill="#183651"/>
</g>
<defs>
<clipPath id="clip0_316_2152">
<rect width="20" height="20" fill="white" transform="translate(0 0.5)"/>
</clipPath>
</defs>
</svg>
