<svg width="183" height="43" viewBox="0 0 183 43" fill="none" xmlns="http://www.w3.org/2000/svg">
<g clip-path="url(#clip0_229_172)">
<mask id="mask0_229_172" style="mask-type:luminance" maskUnits="userSpaceOnUse" x="54" y="14" width="16" height="19">
<path d="M56.3452 31.6892C55.6789 31.4313 55.243 30.8871 55.243 30.1619C55.243 29.2821 55.9603 28.5578 56.8322 28.5578C57.0883 28.5578 57.2929 28.6092 57.4727 28.6867C58.6007 29.2046 59.805 29.515 61.2663 29.515C63.9315 29.515 65.1877 28.2211 65.1877 25.7356V25.0626C64.0336 26.461 62.7787 27.3145 60.7026 27.3145C57.4985 27.3145 54.6016 24.9589 54.6016 20.8429V20.7915C54.6016 16.6495 57.5495 14.32 60.7026 14.32C62.8293 14.32 64.0855 15.2258 65.1358 16.3906V16.3645C65.1358 15.3035 66.0076 14.4237 67.0841 14.4237C68.1606 14.4237 69.0311 15.3035 69.0311 16.3906V25.3216C69.0311 27.8072 68.4429 29.6188 67.2887 30.7834C66.0076 32.0781 64.0336 32.6475 61.3689 32.6475C59.5484 32.6475 57.9597 32.3371 56.3452 31.6892ZM65.1877 20.8429V20.7915C65.1877 18.9015 63.7264 17.5816 61.8301 17.5816C59.9337 17.5816 58.4981 18.9015 58.4981 20.7915V20.8429C58.4981 22.7583 59.9337 24.0531 61.8301 24.0531C63.7264 24.0531 65.1877 22.7331 65.1877 20.8429Z" fill="white"/>
</mask>
<g mask="url(#mask0_229_172)">
<mask id="mask1_229_172" style="mask-type:luminance" maskUnits="userSpaceOnUse" x="0" y="0" width="183" height="43">
<path d="M0.5 43H182.5V0H0.5V43Z" fill="white"/>
</mask>
<g mask="url(#mask1_229_172)">
<path d="M50.1641 37.1265H73.4716V9.84063H50.1641V37.1265Z" fill="#DDDDDD"/>
</g>
</g>
<mask id="mask2_229_172" style="mask-type:luminance" maskUnits="userSpaceOnUse" x="71" y="14" width="9" height="15">
<path d="M71.2385 16.3904C71.2385 15.3033 72.1095 14.4236 73.1868 14.4236C74.2628 14.4236 75.1338 15.3033 75.1338 16.3904V17.0112C75.6984 15.6661 76.6204 14.4236 77.7745 14.4236C78.9793 14.4236 79.6704 15.2257 79.6704 16.3381C79.6704 17.3739 79.0042 17.9956 78.2105 18.1769C76.236 18.6433 75.1338 20.1697 75.1338 22.9657V26.6412C75.1338 27.7285 74.2628 28.6091 73.1868 28.6091C72.1095 28.6091 71.2385 27.7285 71.2385 26.6412V16.3904Z" fill="white"/>
</mask>
<g mask="url(#mask2_229_172)">
<mask id="mask3_229_172" style="mask-type:luminance" maskUnits="userSpaceOnUse" x="0" y="0" width="183" height="43">
<path d="M0.500488 43H182.5V0H0.500488V43Z" fill="white"/>
</mask>
<g mask="url(#mask3_229_172)">
<path d="M66.7971 33.0884H84.1074V9.94457H66.7971V33.0884Z" fill="#DDDDDD"/>
</g>
</g>
<mask id="mask4_229_172" style="mask-type:luminance" maskUnits="userSpaceOnUse" x="79" y="14" width="13" height="15">
<path d="M79.2109 24.467V24.4158C79.2109 21.3871 81.4917 19.9886 84.7473 19.9886C86.1309 19.9886 87.1306 20.2213 88.105 20.5579V20.325C88.105 18.6948 87.1049 17.788 85.1575 17.788C84.081 17.788 83.2092 17.9442 82.4661 18.177C82.2357 18.2545 82.0821 18.2807 81.9023 18.2807C81.0056 18.2807 80.2874 17.5815 80.2874 16.6747C80.2874 15.9766 80.7224 15.381 81.3386 15.1474C82.5686 14.6818 83.9017 14.4237 85.7212 14.4237C87.8479 14.4237 89.3861 14.9931 90.3595 15.9766C91.3854 17.0113 91.8471 18.5396 91.8471 20.4036V26.719C91.8471 27.7809 91.001 28.6092 89.9498 28.6092C88.8223 28.6092 88.0792 27.8072 88.0792 26.978V26.9517C87.1306 28.0136 85.8238 28.7119 83.9265 28.7119C81.3386 28.7119 79.2109 27.2116 79.2109 24.467ZM88.156 23.5612V22.862C87.4897 22.5517 86.6188 22.3442 85.6693 22.3442C84.0033 22.3442 82.9788 23.0172 82.9788 24.2606V24.312C82.9788 25.3739 83.8506 25.9945 85.1055 25.9945C86.926 25.9945 88.156 24.9849 88.156 23.5612Z" fill="white"/>
</mask>
<g mask="url(#mask4_229_172)">
<mask id="mask5_229_172" style="mask-type:luminance" maskUnits="userSpaceOnUse" x="0" y="0" width="183" height="43">
<path d="M0.5 43H182.5V0H0.5V43Z" fill="white"/>
</mask>
<g mask="url(#mask5_229_172)">
<path d="M74.7695 33.1909H96.2835V9.9444H74.7695V33.1909Z" fill="#DDDDDD"/>
</g>
</g>
<mask id="mask6_229_172" style="mask-type:luminance" maskUnits="userSpaceOnUse" x="93" y="14" width="22" height="15">
<path d="M93.9219 16.3905C93.9219 15.3034 94.7928 14.4237 95.8702 14.4237C96.9466 14.4237 97.8185 15.3034 97.8185 16.3905V16.5467C98.7142 15.3809 99.8941 14.3199 101.867 14.3199C103.661 14.3199 105.02 15.1219 105.737 16.5204C106.942 15.0967 108.378 14.3199 110.248 14.3199C113.145 14.3199 114.887 16.0802 114.887 19.4202V26.6413C114.887 27.7285 114.016 28.6091 112.939 28.6091C111.863 28.6091 110.991 27.7285 110.991 26.6413V20.7139C110.991 18.85 110.171 17.8918 108.71 17.8918C107.249 17.8918 106.352 18.85 106.352 20.7139V26.6413C106.352 27.7285 105.482 28.6091 104.404 28.6091C103.328 28.6091 102.456 27.7285 102.456 26.6413V20.7139C102.456 18.85 101.637 17.8918 100.176 17.8918C98.7142 17.8918 97.8185 18.85 97.8185 20.7139V26.6413C97.8185 27.7285 96.9466 28.6091 95.8702 28.6091C94.7928 28.6091 93.9219 27.7285 93.9219 26.6413V16.3905Z" fill="white"/>
</mask>
<g mask="url(#mask6_229_172)">
<mask id="mask7_229_172" style="mask-type:luminance" maskUnits="userSpaceOnUse" x="0" y="0" width="183" height="43">
<path d="M0.5 43H182.5V1.52588e-05H0.5V43Z" fill="white"/>
</mask>
<g mask="url(#mask7_229_172)">
<path d="M89.4844 33.0884H119.328V9.8408H89.4844V33.0884Z" fill="#DDDDDD"/>
</g>
</g>
<mask id="mask8_229_172" style="mask-type:luminance" maskUnits="userSpaceOnUse" x="116" y="14" width="22" height="15">
<path d="M116.992 16.3905C116.992 15.3034 117.863 14.4237 118.94 14.4237C120.017 14.4237 120.888 15.3034 120.888 16.3905V16.5467C121.785 15.3809 122.964 14.3199 124.938 14.3199C126.731 14.3199 128.09 15.1219 128.807 16.5204C130.012 15.0967 131.448 14.3199 133.318 14.3199C136.215 14.3199 137.958 16.0802 137.958 19.4202V26.6413C137.958 27.7285 137.087 28.6091 136.009 28.6091C134.933 28.6091 134.061 27.7285 134.061 26.6413V20.7139C134.061 18.85 133.241 17.8918 131.781 17.8918C130.319 17.8918 129.422 18.85 129.422 20.7139V26.6413C129.422 27.7285 128.552 28.6091 127.475 28.6091C126.398 28.6091 125.527 27.7285 125.527 26.6413V20.7139C125.527 18.85 124.707 17.8918 123.246 17.8918C121.785 17.8918 120.888 18.85 120.888 20.7139V26.6413C120.888 27.7285 120.017 28.6091 118.94 28.6091C117.863 28.6091 116.992 27.7285 116.992 26.6413V16.3905Z" fill="white"/>
</mask>
<g mask="url(#mask8_229_172)">
<mask id="mask9_229_172" style="mask-type:luminance" maskUnits="userSpaceOnUse" x="0" y="0" width="183" height="43">
<path d="M0.503906 43H182.504V0H0.503906V43Z" fill="white"/>
</mask>
<g mask="url(#mask9_229_172)">
<path d="M112.555 33.0884H142.398V9.84079H112.555V33.0884Z" fill="#DDDDDD"/>
</g>
</g>
<mask id="mask10_229_172" style="mask-type:luminance" maskUnits="userSpaceOnUse" x="139" y="14" width="13" height="15">
<path d="M139.238 24.467V24.4158C139.238 21.3871 141.519 19.9886 144.774 19.9886C146.158 19.9886 147.158 20.2213 148.131 20.5579V20.325C148.131 18.6948 147.133 17.788 145.183 17.788C144.107 17.788 143.236 17.9442 142.493 18.177C142.263 18.2545 142.109 18.2807 141.929 18.2807C141.032 18.2807 140.314 17.5815 140.314 16.6747C140.314 15.9766 140.75 15.381 141.365 15.1474C142.596 14.6818 143.929 14.4237 145.748 14.4237C147.876 14.4237 149.413 14.9931 150.386 15.9766C151.412 17.0113 151.873 18.5396 151.873 20.4036V26.719C151.873 27.7809 151.028 28.6092 149.978 28.6092C148.849 28.6092 148.106 27.8072 148.106 26.978V26.9517C147.158 28.0136 145.85 28.7119 143.954 28.7119C141.365 28.7119 139.238 27.2116 139.238 24.467ZM148.183 23.5612V22.862C147.517 22.5517 146.645 22.3442 145.697 22.3442C144.03 22.3442 143.006 23.0172 143.006 24.2606V24.312C143.006 25.3739 143.877 25.9945 145.132 25.9945C146.952 25.9945 148.183 24.9849 148.183 23.5612Z" fill="white"/>
</mask>
<g mask="url(#mask10_229_172)">
<mask id="mask11_229_172" style="mask-type:luminance" maskUnits="userSpaceOnUse" x="0" y="0" width="183" height="43">
<path d="M0.5 43H182.5V0H0.5V43Z" fill="white"/>
</mask>
<g mask="url(#mask11_229_172)">
<path d="M134.801 33.1909H156.314V9.9444H134.801V33.1909Z" fill="#DDDDDD"/>
</g>
</g>
<mask id="mask12_229_172" style="mask-type:luminance" maskUnits="userSpaceOnUse" x="153" y="14" width="10" height="15">
<path d="M153.949 16.3905C153.949 15.3034 154.821 14.4237 155.898 14.4237C156.975 14.4237 157.846 15.3034 157.846 16.3905V17.0112C158.41 15.6661 159.332 14.4237 160.486 14.4237C161.69 14.4237 162.382 15.2257 162.382 16.3381C162.382 17.3739 161.715 17.9956 160.921 18.1769C158.948 18.6433 157.846 20.1698 157.846 22.9657V26.6413C157.846 27.7285 156.975 28.6091 155.898 28.6091C154.821 28.6091 153.949 27.7285 153.949 26.6413V16.3905Z" fill="white"/>
</mask>
<g mask="url(#mask12_229_172)">
<mask id="mask13_229_172" style="mask-type:luminance" maskUnits="userSpaceOnUse" x="0" y="0" width="183" height="43">
<path d="M0.5 43H182.5V0H0.5V43Z" fill="white"/>
</mask>
<g mask="url(#mask13_229_172)">
<path d="M149.512 33.0884H166.822V9.94457H149.512V33.0884Z" fill="#DDDDDD"/>
</g>
</g>
<mask id="mask14_229_172" style="mask-type:luminance" maskUnits="userSpaceOnUse" x="163" y="9" width="5" height="20">
<path d="M163.562 11.3678C163.562 10.2807 164.433 9.4012 165.51 9.4012C166.587 9.4012 167.459 10.2807 167.459 11.3678V26.6412C167.459 27.7285 166.587 28.6091 165.51 28.6091C164.433 28.6091 163.562 27.7285 163.562 26.6412V11.3678Z" fill="white"/>
</mask>
<g mask="url(#mask14_229_172)">
<mask id="mask15_229_172" style="mask-type:luminance" maskUnits="userSpaceOnUse" x="0" y="0" width="183" height="43">
<path d="M0.5 43H182.5V-1.52588e-05H0.5V43Z" fill="white"/>
</mask>
<g mask="url(#mask15_229_172)">
<path d="M159.125 33.0884H171.899V4.92211H159.125V33.0884Z" fill="#DDDDDD"/>
</g>
</g>
<mask id="mask16_229_172" style="mask-type:luminance" maskUnits="userSpaceOnUse" x="168" y="14" width="15" height="19">
<path d="M170.56 32.3107C169.996 32.1042 169.329 31.6378 169.329 30.6805C169.329 29.7224 170.073 29.0745 170.868 29.0745C171.175 29.0745 171.354 29.1268 171.508 29.1783C171.841 29.282 172.047 29.3343 172.329 29.3343C173.02 29.3343 173.354 29.2045 173.713 28.5053L173.84 28.195L169.151 17.2187C169.048 16.9598 168.945 16.5719 168.945 16.3129C168.945 15.1996 169.791 14.4236 170.868 14.4236C171.841 14.4236 172.405 14.9667 172.738 15.8979L175.712 23.9753L178.582 15.924C178.89 15.0967 179.452 14.4236 180.453 14.4236C181.453 14.4236 182.297 15.1996 182.297 16.2352C182.297 16.5467 182.196 16.986 182.119 17.1673L177.326 28.7904C176.172 31.6115 175.02 32.6734 172.687 32.6734C171.816 32.6734 171.201 32.5445 170.56 32.3107Z" fill="white"/>
</mask>
<g mask="url(#mask16_229_172)">
<mask id="mask17_229_172" style="mask-type:luminance" maskUnits="userSpaceOnUse" x="0" y="0" width="183" height="43">
<path d="M0.5 43.0001H182.5V7.62939e-05H0.5V43.0001Z" fill="white"/>
</mask>
<g mask="url(#mask17_229_172)">
<path d="M164.508 37.1527H186.738V9.9445H164.508V37.1527Z" fill="#DDDDDD"/>
</g>
</g>
<mask id="mask18_229_172" style="mask-type:luminance" maskUnits="userSpaceOnUse" x="1" y="0" width="43" height="43">
<path d="M43.8232 21.5C43.8232 33.3736 34.2934 43 22.5367 43C10.7809 43 1.25 33.3736 1.25 21.5C1.25 9.62551 10.7809 0 22.5367 0C34.2934 0 43.8232 9.62551 43.8232 21.5Z" fill="white"/>
</mask>
<g mask="url(#mask18_229_172)">
<mask id="mask19_229_172" style="mask-type:luminance" maskUnits="userSpaceOnUse" x="0" y="0" width="183" height="43">
<path d="M0.5 43H182.5V0H0.5V43Z" fill="white"/>
</mask>
<g mask="url(#mask19_229_172)">
<path d="M0.5 43H48.2617V-4.47916H0.5V43Z" fill="#DDDDDD"/>
</g>
</g>
<mask id="mask20_229_172" style="mask-type:luminance" maskUnits="userSpaceOnUse" x="10" y="8" width="25" height="27">
<path d="M25.3193 26.142C25.4452 26.8459 26.1004 27.3283 26.8085 27.3283H29.0389L30.3318 27.1451C28.2633 30.2102 24.6715 31.6207 20.7445 30.9982C17.5479 30.4917 14.8019 28.3071 13.6431 25.2559C11.0128 18.33 16.0208 11.7175 22.5465 11.7175C25.9477 11.7175 28.931 13.727 30.6399 16.1568C31.1327 16.8574 31.9948 17.0598 32.6501 16.6007C33.2721 16.1652 33.4535 15.3379 33.0796 14.6872C30.7139 10.9575 26.4632 8.57092 21.683 8.8944C15.459 9.31589 10.4224 14.4601 10.0642 20.7502C9.64867 28.0696 15.3968 34.0456 22.5465 34.0456C26.3021 34.0456 29.6645 32.3939 31.9551 29.7213L31.6839 31.2544V32.6398C31.6839 33.354 32.1606 34.0167 32.8575 34.1438C33.7729 34.3102 34.5688 33.6043 34.5688 32.7108V24.4137H26.7372C25.8523 24.4137 25.1535 25.2185 25.3193 26.142Z" fill="white"/>
</mask>
<g mask="url(#mask20_229_172)">
<mask id="mask21_229_172" style="mask-type:luminance" maskUnits="userSpaceOnUse" x="0" y="0" width="183" height="43">
<path d="M0.5 43H182.5V0H0.5V43Z" fill="white"/>
</mask>
<g mask="url(#mask21_229_172)">
<path d="M5.60156 38.6475H39.0054V4.38605H5.60156V38.6475Z" fill="#33907F"/>
</g>
</g>
</g>
<defs>
<clipPath id="clip0_229_172">
<rect width="182" height="43" fill="white" transform="translate(0.5)"/>
</clipPath>
</defs>
</svg>
